{"glyphs":{"0":{"ha":689,"x_min":0,"x_max":0,"o":"m 344 -17 b 490 50 395 -17 443 5 b 635 486 586 142 635 317 b 487 924 635 654 585 833 b 344 989 440 968 393 989 b 200 924 294 989 247 968 b 52 486 103 833 52 655 b 91 235 52 399 65 315 b 344 -17 144 68 248 -17 z m 370 18 b 283 71 341 18 312 36 b 157 552 209 158 157 358 b 168 705 157 604 161 655 b 309 954 191 865 250 947 l 317 954 b 404 903 345 954 374 937 b 530 419 478 817 530 612 b 520 270 530 368 527 318 b 370 18 497 106 435 18 z "},"1":{"ha":688,"x_min":0,"x_max":0,"o":"m 538 0 l 538 34 l 473 34 b 404 193 427 34 404 87 l 404 972 l 370 972 b 148 853 354 922 280 882 l 148 819 l 214 819 b 294 732 267 819 294 790 l 294 193 b 224 34 294 87 271 34 l 159 34 l 159 0 z "},"2":{"ha":688,"x_min":0,"x_max":0,"o":"m 565 0 l 635 157 l 602 157 b 460 81 566 106 519 81 l 174 81 b 599 703 457 377 599 584 b 515 904 599 782 571 849 b 307 986 459 959 390 986 b 182 949 258 986 216 974 b 104 879 147 925 121 901 l 104 846 l 119 846 b 305 935 166 905 229 935 b 431 869 351 935 393 913 b 490 703 470 825 490 770 b 78 34 490 562 353 339 l 77 0 z "},"3":{"ha":688,"x_min":0,"x_max":0,"o":"m 289 -15 b 509 74 371 -15 444 15 b 607 273 574 133 607 199 b 538 463 607 345 584 408 b 406 553 492 517 448 547 b 578 760 526 608 578 682 b 509 929 578 835 555 891 b 334 986 463 967 404 986 b 179 954 258 986 179 972 l 179 846 l 208 846 b 329 952 208 909 269 952 b 441 890 379 946 416 926 b 479 761 467 854 479 810 b 436 619 479 701 465 653 b 338 537 408 585 375 557 l 338 524 b 458 424 398 503 438 469 b 488 284 478 378 488 331 b 443 94 488 210 473 146 b 295 15 412 41 363 15 b 90 139 182 15 90 60 l 56 139 l 56 71 b 289 -15 56 28 145 -15 z "},"4":{"ha":688,"x_min":0,"x_max":0,"o":"m 407 297 l 119 297 l 407 762 z m 600 0 l 600 34 l 549 34 b 500 113 516 34 500 60 l 500 229 l 607 229 l 677 387 l 644 387 b 513 297 616 327 573 297 l 500 297 l 500 972 l 477 972 l 29 253 l 29 229 l 407 229 l 407 115 b 352 34 407 61 389 34 l 300 34 l 300 0 z "},"5":{"ha":689,"x_min":0,"x_max":0,"o":"m 283 -15 b 503 74 365 -15 438 15 b 600 321 568 133 600 216 b 490 526 600 401 564 469 b 227 610 417 582 330 610 l 298 891 l 589 891 l 631 1008 l 597 1008 b 522 972 593 984 568 972 l 253 972 l 155 578 b 214 581 176 580 195 581 b 407 509 293 581 357 557 b 481 330 456 461 481 401 b 289 15 481 111 418 15 b 142 47 230 15 180 26 b 83 139 103 68 83 99 l 52 139 l 52 67 b 283 -15 52 27 142 -15 z "},"6":{"ha":689,"x_min":0,"x_max":0,"o":"m 378 7 b 222 111 317 7 265 42 b 157 318 179 180 157 249 b 206 488 157 385 174 442 b 317 557 239 534 275 557 b 463 469 369 557 418 528 b 531 242 509 410 531 334 b 378 7 531 113 474 7 z m 385 -17 b 500 22 422 -17 460 -4 b 635 282 575 73 635 172 b 596 433 635 334 623 385 b 344 581 541 532 437 581 b 163 518 267 581 207 560 b 543 957 243 803 391 947 l 543 989 b 194 777 405 989 288 918 b 52 346 100 634 52 490 b 136 94 52 251 80 167 b 385 -17 192 20 275 -17 z "},"7":{"ha":688,"x_min":0,"x_max":0,"o":"m 496 0 l 496 34 l 416 34 b 371 121 386 34 371 63 b 622 939 371 275 454 547 l 623 972 l 135 972 l 65 815 l 99 815 b 229 891 125 866 169 891 l 500 891 b 311 123 382 513 320 256 b 262 34 311 64 295 34 l 217 34 l 217 0 z "},"8":{"ha":689,"x_min":0,"x_max":0,"o":"m 374 563 b 227 648 294 587 244 616 b 189 790 201 695 189 743 b 197 858 189 813 191 836 b 315 970 216 930 266 967 b 393 947 342 970 363 966 b 496 768 449 912 486 839 b 498 742 498 760 498 751 b 480 647 498 713 492 681 b 374 563 465 602 429 574 z m 378 4 b 283 34 344 4 319 9 b 161 262 216 79 173 172 b 159 286 160 270 159 278 b 197 426 159 328 172 374 b 320 532 228 488 269 523 b 477 429 397 509 449 474 b 530 235 515 368 530 300 b 520 149 530 205 527 176 b 378 4 497 56 439 7 z m 344 -17 b 490 22 395 -17 443 -4 b 635 273 586 75 635 176 b 596 419 635 324 623 372 b 431 550 557 488 500 527 b 587 760 524 580 587 667 b 554 873 587 800 576 838 b 344 986 509 949 422 986 b 224 957 302 986 263 977 b 101 760 143 916 101 836 b 133 648 101 721 112 684 b 256 550 162 599 205 569 b 200 526 237 544 218 536 b 52 273 103 473 52 370 b 91 129 52 222 65 174 b 344 -17 144 33 247 -17 z "},"9":{"ha":689,"x_min":0,"x_max":0,"o":"m 371 416 b 225 505 319 416 271 446 b 157 730 180 564 157 639 b 309 965 157 859 214 965 b 466 862 370 965 422 930 b 531 654 509 793 531 724 b 482 485 531 587 515 530 b 371 416 449 439 412 416 z m 144 -17 b 494 197 283 -17 399 54 b 635 627 588 338 635 482 b 552 880 635 722 608 806 b 303 989 496 953 413 989 b 189 950 266 989 228 977 b 52 690 113 900 52 800 b 92 541 52 638 65 588 b 344 391 146 440 250 391 b 524 454 421 391 481 412 b 144 16 444 170 297 26 z "},"\u0000":{"ha":0,"x_min":0,"x_max":0,"o":""},"\u001d":{"ha":0,"x_min":0,"x_max":0,"o":""}," ":{"ha":475,"x_min":0,"x_max":0,"o":""}," ":{"ha":475,"x_min":0,"x_max":0,"o":""},"!":{"ha":456,"x_min":0,"x_max":0,"o":"m 237 222 l 292 925 b 235 987 292 966 273 987 b 179 925 198 987 179 966 l 212 222 z m 227 -3 b 246 10 231 -3 237 1 l 300 70 b 310 91 307 77 310 84 b 302 111 310 97 307 103 l 248 169 b 227 180 239 176 233 180 b 207 170 220 180 214 176 l 151 113 b 140 92 144 106 140 99 b 147 75 140 86 142 81 l 207 6 b 227 -3 213 0 219 -3 z "},"\"":{"ha":456,"x_min":0,"x_max":0,"o":"m 134 751 l 176 995 b 178 1018 178 1006 178 1015 b 123 1069 178 1053 157 1069 b 68 1017 88 1069 68 1052 b 71 995 68 1013 69 1005 l 113 751 z m 345 751 l 387 995 b 390 1018 389 1006 390 1015 b 334 1069 390 1053 369 1069 b 280 1017 300 1069 280 1052 b 283 995 280 1013 281 1005 l 325 751 z "},"#":{"ha":905,"x_min":0,"x_max":0,"o":"m 511 386 l 347 386 l 404 583 l 569 583 z m 459 0 l 554 320 l 744 320 l 764 387 l 575 387 l 631 583 l 807 583 l 827 649 l 651 649 l 747 972 l 684 972 l 588 649 l 424 649 l 519 972 l 456 972 l 361 649 l 161 649 l 142 583 l 342 583 l 283 387 l 100 387 l 79 320 l 264 320 l 170 0 l 232 0 l 328 320 l 491 320 l 397 0 z "},"$":{"ha":688,"x_min":0,"x_max":0,"o":"m 391 -174 l 391 -12 b 585 70 466 -4 530 23 b 665 273 638 117 665 184 b 610 452 665 352 647 412 b 391 576 573 493 500 534 l 391 943 b 484 916 420 939 451 930 b 598 795 533 896 571 855 l 631 795 l 562 986 l 528 986 b 500 956 520 966 511 956 b 487 960 496 956 492 957 b 391 983 454 972 422 980 l 391 1053 l 342 1053 l 342 985 b 77 732 189 971 77 876 b 139 563 77 661 98 604 b 342 459 178 524 245 490 l 342 28 b 224 58 309 28 270 38 b 120 211 177 77 142 128 l 87 211 l 87 -14 l 121 -14 b 149 17 128 7 137 17 b 161 13 153 17 157 16 b 342 -13 197 -3 257 -12 l 342 -174 z m 391 31 l 391 444 b 547 368 467 420 519 395 b 593 244 578 338 593 296 b 535 96 593 181 574 132 b 391 31 496 60 448 38 z m 342 592 b 186 669 261 618 210 644 b 149 772 161 694 149 728 b 342 945 149 871 233 940 z "},"%":{"ha":1092,"x_min":0,"x_max":0,"o":"m 304 475 b 436 510 350 475 394 487 b 567 732 524 557 567 646 b 532 862 567 778 555 821 b 304 989 483 947 390 989 b 176 956 260 989 217 979 b 42 732 87 910 42 819 b 77 605 42 688 54 645 b 304 475 125 520 218 475 z m 327 494 b 250 521 301 494 275 503 b 137 765 179 568 137 674 b 147 844 137 791 140 818 b 273 971 167 926 220 968 b 359 945 304 971 326 966 b 472 698 429 899 472 795 b 463 623 472 672 469 647 b 336 494 444 541 390 497 z m 260 -20 l 896 971 l 839 971 l 201 -20 z m 787 -14 b 919 20 833 -14 877 -2 b 1050 243 1006 68 1050 157 b 1015 372 1050 288 1038 331 b 787 500 965 458 871 500 b 659 467 743 500 700 490 b 525 243 570 420 525 330 b 559 115 525 198 536 155 b 787 -14 608 31 700 -14 z m 819 5 b 732 31 788 5 765 9 b 620 275 662 79 620 184 b 630 355 620 302 623 328 b 756 481 650 436 703 479 b 842 456 787 481 809 477 b 955 208 911 409 955 305 b 946 133 955 182 952 157 b 819 5 926 52 873 7 z "},"&":{"ha":1141,"x_min":0,"x_max":0,"o":"m 510 49 b 378 79 465 49 420 59 b 174 399 256 136 174 273 b 216 538 174 453 188 499 b 337 596 243 576 283 596 l 713 133 b 510 49 667 80 587 49 z m 456 -11 b 738 106 582 -11 680 43 b 851 17 776 58 814 28 b 945 0 888 5 920 0 l 1054 0 l 1124 157 l 1090 157 b 960 71 1068 107 1025 78 l 949 71 b 781 163 886 71 831 101 b 886 361 838 235 872 301 b 985 515 909 463 942 515 l 1046 515 l 1046 549 l 745 549 l 745 515 l 806 515 b 848 449 834 515 848 493 b 837 361 848 425 844 396 b 755 195 827 317 799 261 l 395 650 b 326 831 349 711 326 772 b 425 941 326 895 366 941 b 521 916 450 941 482 933 b 626 795 566 896 601 856 l 657 795 l 592 986 l 561 986 b 535 956 554 966 545 956 b 523 960 531 956 527 957 b 427 986 490 977 457 986 b 303 924 379 986 338 965 b 251 790 269 882 251 838 b 307 636 251 741 269 692 b 103 353 176 595 103 502 b 202 92 103 246 136 159 b 456 -11 268 23 352 -11 z "},"'":{"ha":235,"x_min":0,"x_max":0,"o":"m 134 751 l 176 995 b 178 1018 178 1006 178 1015 b 123 1069 178 1053 157 1069 b 68 1017 88 1069 68 1052 b 71 995 68 1013 69 1005 l 113 751 z "},"(":{"ha":514,"x_min":0,"x_max":0,"o":"m 475 -251 b 319 46 397 -142 345 -43 b 280 400 293 133 280 251 b 319 770 280 559 291 675 b 475 1067 345 859 397 958 l 420 1067 b 171 408 273 904 173 671 b 420 -251 173 144 273 -88 z "},")":{"ha":514,"x_min":0,"x_max":0,"o":"m 94 -251 b 343 408 241 -88 341 144 b 94 1067 341 671 241 904 l 39 1067 b 195 770 117 958 169 859 b 234 415 221 682 234 564 b 195 46 234 256 223 140 b 39 -251 169 -43 117 -142 z "},"*":{"ha":694,"x_min":0,"x_max":0,"o":"m 427 685 b 494 747 457 685 494 715 b 486 773 494 756 492 765 b 432 805 481 780 463 791 b 361 861 404 818 380 836 b 416 869 379 866 397 869 b 453 865 428 869 440 867 b 505 859 476 861 493 859 b 517 861 511 859 515 860 b 546 905 536 866 546 882 b 542 930 546 913 545 921 b 492 972 532 958 514 972 b 478 970 488 972 483 972 b 431 929 470 968 454 954 b 355 878 410 907 385 890 b 380 966 357 909 365 939 b 404 1027 396 997 404 1017 b 346 1071 404 1054 378 1071 b 288 1023 311 1071 288 1053 b 313 966 288 1015 296 996 b 338 878 328 939 336 909 b 262 928 309 889 283 906 b 199 972 224 968 213 972 b 176 964 192 972 184 970 b 148 904 159 951 148 926 b 180 859 148 882 161 864 b 189 857 182 858 185 857 b 242 865 200 857 218 860 b 278 868 254 867 266 868 b 332 861 296 868 314 865 b 261 805 313 837 289 818 b 205 770 229 789 211 778 b 197 749 200 764 197 756 b 265 686 197 719 235 686 b 302 705 281 686 292 692 b 315 766 307 711 311 732 b 347 850 319 795 330 823 b 378 765 363 823 374 795 b 393 701 383 730 388 709 b 426 686 401 691 412 686 z "},"+":{"ha":688,"x_min":0,"x_max":0,"o":"m 391 188 l 391 439 l 629 439 l 629 533 l 628 534 l 391 534 l 391 785 l 297 785 l 296 784 l 296 534 l 59 534 l 59 439 l 296 439 l 296 188 z "},",":{"ha":378,"x_min":0,"x_max":0,"o":"m 109 -205 b 203 -125 140 -205 172 -179 b 252 28 235 -73 252 -22 b 222 131 252 66 241 101 b 161 175 201 160 181 175 l 81 90 l 81 62 b 168 -47 139 43 168 6 b 109 -176 162 -114 142 -157 z "},"-":{"ha":456,"x_min":0,"x_max":0,"o":"m 349 277 b 376 296 367 277 376 283 l 376 353 b 348 372 376 366 366 372 l 106 372 b 79 353 88 372 79 366 l 79 296 b 106 277 79 283 87 277 z "},"­":{"ha":456,"x_min":0,"x_max":0,"o":"m 349 277 b 376 296 367 277 376 283 l 376 353 b 348 372 376 366 366 372 l 106 372 b 79 353 88 372 79 366 l 79 296 b 106 277 79 283 87 277 z "},".":{"ha":378,"x_min":0,"x_max":0,"o":"m 174 -3 b 193 10 178 -3 184 1 l 248 70 b 257 91 254 77 257 84 b 249 111 257 97 254 103 l 195 169 b 174 180 186 176 180 180 b 154 170 168 180 161 176 l 98 113 b 87 92 91 106 87 99 b 94 75 87 86 90 81 l 154 6 b 174 -3 160 0 166 -3 z "},"/":{"ha":386,"x_min":0,"x_max":0,"o":"m 63 -34 l 430 972 l 376 972 l 9 -34 z "},":":{"ha":378,"x_min":0,"x_max":0,"o":"m 174 -3 b 193 10 178 -3 184 1 l 248 70 b 257 91 254 77 257 84 b 249 111 257 97 254 103 l 195 169 b 174 180 186 176 180 180 b 154 170 168 180 161 176 l 98 113 b 87 92 91 106 87 99 b 94 75 87 86 90 81 l 154 6 b 174 -3 160 0 166 -3 z m 174 467 b 193 480 178 467 184 471 l 248 540 b 257 561 254 547 257 554 b 249 581 257 567 254 573 l 195 639 b 174 650 186 646 180 650 b 154 640 168 650 161 646 l 98 583 b 87 562 91 576 87 569 b 94 545 87 556 90 551 l 154 476 b 174 467 160 470 166 467 z "},";":{"ha":378,"x_min":0,"x_max":0,"o":"m 174 466 b 193 479 178 466 184 471 l 248 539 b 257 560 254 547 257 553 b 249 580 257 566 254 572 l 195 638 b 174 649 186 646 180 649 b 154 640 168 649 161 646 l 98 583 b 87 562 91 575 87 568 b 94 544 87 555 90 550 l 154 475 b 174 466 160 469 166 466 z m 109 -205 b 203 -125 140 -205 172 -179 b 252 28 235 -73 252 -22 b 222 131 252 66 241 101 b 161 175 201 160 181 175 l 81 90 l 81 62 b 168 -47 139 43 168 6 b 109 -176 162 -114 142 -157 z "},";":{"ha":378,"x_min":0,"x_max":0,"o":"m 174 466 b 193 479 178 466 184 471 l 248 539 b 257 560 254 547 257 553 b 249 580 257 566 254 572 l 195 638 b 174 649 186 646 180 649 b 154 640 168 649 161 646 l 98 583 b 87 562 91 575 87 568 b 94 544 87 555 90 550 l 154 475 b 174 466 160 469 166 466 z m 109 -205 b 203 -125 140 -205 172 -179 b 252 28 235 -73 252 -22 b 222 131 252 66 241 101 b 161 175 201 160 181 175 l 81 90 l 81 62 b 168 -47 139 43 168 6 b 109 -176 162 -114 142 -157 z "},"<":{"ha":688,"x_min":0,"x_max":0,"o":"m 629 131 l 629 244 l 205 485 l 629 728 l 629 842 l 59 513 l 59 457 z "},"=":{"ha":688,"x_min":0,"x_max":0,"o":"m 629 333 l 629 428 l 59 428 l 59 333 z m 629 545 l 629 640 l 59 640 l 59 545 z "},">":{"ha":688,"x_min":0,"x_max":0,"o":"m 59 131 l 629 457 l 629 513 l 59 842 l 59 728 l 483 485 l 59 244 z "},"?":{"ha":507,"x_min":0,"x_max":0,"o":"m 238 230 b 214 358 222 287 214 330 b 250 455 214 389 226 421 b 345 582 273 488 304 531 b 452 803 425 682 452 739 b 254 972 452 909 370 972 b 90 902 202 972 147 949 l 90 859 b 210 913 132 895 172 913 b 330 794 286 913 330 867 b 252 585 330 746 304 676 b 172 373 199 493 172 422 b 206 230 172 340 184 292 z m 227 -3 b 246 10 231 -3 237 1 l 300 70 b 310 91 307 77 310 84 b 302 111 310 97 307 103 l 248 169 b 227 180 239 176 233 180 b 207 170 220 180 214 176 l 151 113 b 140 92 144 106 140 99 b 147 75 140 86 142 81 l 207 6 b 227 -3 213 0 219 -3 z "},"@":{"ha":1369,"x_min":0,"x_max":0,"o":"m 678 42 b 554 101 625 42 583 62 b 511 233 525 140 511 184 b 557 368 511 291 526 336 b 659 422 587 399 622 417 b 764 478 705 431 739 450 l 764 155 b 678 42 751 82 722 44 z m 696 -283 b 1083 -159 835 -283 964 -242 l 1083 -108 b 693 -249 947 -202 817 -249 b 477 -186 629 -249 557 -228 b 271 11 398 -145 329 -79 b 182 357 212 100 182 216 b 228 602 182 440 197 522 b 411 844 265 701 326 781 b 677 937 496 905 584 937 b 1002 809 805 937 913 894 b 1160 443 1098 716 1151 594 b 1104 184 1160 340 1141 254 b 923 54 1067 113 1006 69 b 859 133 880 54 859 80 l 859 532 b 802 640 859 575 840 611 b 671 683 764 667 720 682 b 501 642 575 683 501 661 l 501 534 l 532 534 b 566 619 532 564 544 593 b 648 659 589 646 616 659 b 736 621 689 659 718 646 b 764 536 753 596 763 568 b 734 486 764 515 754 498 b 660 457 715 474 690 465 b 543 424 618 451 578 439 b 416 233 468 391 417 311 b 493 75 416 172 442 120 b 667 6 544 29 602 6 b 757 25 703 6 733 12 b 812 68 781 37 800 52 b 922 20 835 34 867 20 b 1157 135 1000 20 1078 59 b 1276 433 1236 212 1276 311 b 1109 817 1276 585 1221 713 b 696 972 997 920 859 972 b 387 892 589 972 486 945 b 152 660 286 838 208 760 b 68 345 96 559 68 454 b 151 32 68 235 96 131 b 383 -200 205 -68 283 -145 b 696 -283 483 -256 587 -283 z "},"A":{"ha":975,"x_min":0,"x_max":0,"o":"m 857 115 b 802 691 843 307 833 500 b 526 1086 773 864 699 1022 b 173 741 301 1170 222 894 b 10 169 112 552 58 361 b 279 94 -33 -6 236 -81 b 311 217 290 136 300 176 b 570 222 397 222 484 224 b 578 115 572 186 575 151 b 857 115 591 -64 871 -65 z m 391 500 b 442 667 408 556 425 612 b 472 756 452 696 462 726 b 484 793 476 768 480 781 b 541 562 525 737 536 599 b 548 503 544 542 546 522 b 391 500 496 503 443 502 z "},"B":{"ha":1001,"x_min":0,"x_max":0,"o":"m 757 653 b 654 721 726 683 692 705 b 645 1000 691 808 694 908 b 73 1076 521 1231 269 1168 b 8 985 37 1059 16 1024 b 7 981 7 984 7 983 b 6 976 7 979 7 978 b 4 953 5 968 4 961 b 98 170 3 689 35 427 b 241 72 117 94 180 65 b 880 265 471 -28 812 -27 b 757 653 911 404 857 555 z m 393 878 b 302 752 435 819 345 770 b 290 747 298 750 294 749 b 285 867 288 787 286 827 b 393 878 329 885 378 899 z m 349 331 b 316 508 336 389 325 449 b 373 492 333 498 353 492 b 608 326 492 486 611 473 b 349 331 606 246 422 300 z "},"C":{"ha":1013,"x_min":0,"x_max":0,"o":"m 821 366 b 629 315 749 408 675 376 b 382 296 587 260 434 272 b 286 540 294 336 286 458 b 374 825 286 644 295 751 b 626 810 448 895 555 863 b 817 860 687 764 782 800 b 767 1051 859 932 827 1005 b 222 1059 609 1171 384 1173 b 7 512 43 932 7 719 b 300 28 6 314 100 96 b 870 174 498 -39 741 3 b 821 366 916 235 880 330 z "},"D":{"ha":1019,"x_min":0,"x_max":0,"o":"m 873 704 b 583 1070 842 881 751 1003 b 176 1092 454 1121 309 1129 b 12 958 102 1099 18 1054 b 113 94 -9 667 25 372 b 372 60 153 -35 316 -26 b 769 232 522 71 663 120 b 873 704 890 359 901 538 z m 572 429 b 337 338 514 359 423 341 b 286 829 300 500 283 663 b 433 826 334 838 382 837 b 598 660 533 804 576 758 b 572 429 614 589 621 490 z "},"E":{"ha":882,"x_min":0,"x_max":0,"o":"m 593 214 b 408 214 532 213 470 214 b 297 224 371 215 332 212 b 277 397 277 272 275 336 b 582 387 379 393 481 390 b 582 666 762 380 762 660 b 306 675 490 669 398 672 b 354 834 316 731 332 787 b 437 833 382 834 409 834 b 623 826 499 833 561 830 b 623 1105 803 815 802 1095 b 375 1114 541 1111 458 1114 b 142 1027 283 1114 199 1109 b 12 582 58 906 28 732 b 8 541 9 568 8 555 b 6 517 7 533 7 526 b 73 50 -6 378 -14 168 b 593 -66 184 -100 429 -68 b 593 214 773 -63 774 216 z "},"F":{"ha":911,"x_min":0,"x_max":0,"o":"m 618 905 b 790 1002 694 892 768 923 b 692 1175 809 1070 768 1162 b 167 1139 515 1204 338 1196 b 27 1036 105 1139 37 1101 b 84 11 -24 692 -8 347 b 354 85 132 -163 402 -89 b 290 410 325 192 303 301 b 618 458 394 455 503 469 b 758 598 694 452 758 528 b 618 738 758 680 694 731 b 275 702 501 749 385 736 b 287 883 276 762 280 823 b 618 905 395 913 506 923 z "},"G":{"ha":1103,"x_min":0,"x_max":0,"o":"m 612 645 b 612 365 433 633 432 353 b 693 365 640 367 667 368 b 486 270 657 309 553 274 b 281 455 370 263 294 345 b 380 804 267 577 294 711 b 538 878 422 849 477 875 b 651 839 566 880 638 873 b 823 741 679 768 744 720 b 921 913 891 760 949 842 b 220 1036 810 1201 435 1219 b 58 238 -5 844 -55 502 b 815 94 185 -57 582 -56 b 982 453 937 172 981 315 b 612 645 983 632 743 654 z "},"H":{"ha":1023,"x_min":0,"x_max":0,"o":"m 845 1016 b 673 1114 833 1091 740 1132 b 575 941 593 1092 564 1017 b 601 670 589 852 597 761 b 280 669 494 671 387 671 b 288 1027 276 789 278 908 b 8 1027 302 1208 22 1206 b 69 114 -16 722 6 415 b 339 189 106 -62 376 12 b 304 391 325 256 313 323 b 597 391 401 391 499 391 b 578 205 593 329 587 267 b 719 66 569 130 650 66 b 859 205 802 66 848 130 b 845 1016 893 477 886 746 z "},"I":{"ha":784,"x_min":0,"x_max":0,"o":"m 528 257 b 498 257 518 257 509 257 b 464 881 485 465 473 673 b 565 976 511 891 550 922 b 467 1148 583 1042 543 1137 b 104 1146 344 1166 228 1166 b 7 975 29 1135 -12 1042 b 179 877 29 895 104 865 b 184 878 181 877 182 877 b 219 253 194 669 205 461 b 229 -26 48 241 51 -28 l 528 -22 b 528 257 709 -20 709 259 z "},"J":{"ha":1036,"x_min":0,"x_max":0,"o":"m 786 1186 b 412 1160 661 1184 536 1175 b 272 1021 336 1152 272 1104 b 412 881 272 951 336 872 b 471 887 432 884 452 885 b 427 492 472 754 458 623 b 349 311 416 447 401 331 b 277 374 301 292 276 330 b -3 374 281 554 1 554 b 565 126 -9 68 347 -75 b 722 538 669 222 697 406 b 751 905 743 659 753 783 b 786 907 763 906 774 907 b 786 1186 966 909 966 1190 z "},"K":{"ha":974,"x_min":0,"x_max":0,"o":"m 732 359 b 424 583 610 396 513 490 b 782 860 518 703 639 795 b 832 1051 851 892 867 991 b 640 1101 790 1122 710 1133 b 288 852 508 1042 389 956 b 304 1069 292 925 298 997 b 164 1208 311 1145 235 1208 b 24 1069 83 1208 32 1145 b -1 603 10 914 1 759 b 3 359 -2 522 -1 440 b 31 165 6 294 24 226 b 68 43 25 124 38 80 b 71 39 68 41 70 40 b 237 21 115 -16 184 -11 b 237 20 237 21 237 20 b 239 22 238 21 239 22 b 240 22 240 22 240 22 b 290 68 260 35 277 50 b 290 275 334 128 300 210 b 283 332 287 294 285 313 b 658 89 392 228 509 134 b 732 359 831 36 904 306 z "},"L":{"ha":934,"x_min":0,"x_max":0,"o":"m 627 434 b 281 362 513 406 397 382 b 290 591 278 439 287 519 b 328 995 295 726 308 861 b 230 1167 338 1070 310 1145 b 58 1069 163 1185 68 1145 b 12 623 36 921 20 772 b 21 193 4 486 -12 330 b 26 166 22 184 23 174 b 62 103 33 139 46 119 b 214 71 102 61 163 54 b 701 165 378 94 541 125 b 627 434 876 208 802 477 z "},"M":{"ha":1050,"x_min":0,"x_max":0,"o":"m 903 978 b 877 1082 913 1017 901 1053 b 760 1149 854 1122 814 1149 b 624 1049 703 1149 640 1106 b 461 778 565 962 511 871 b 448 812 457 789 452 801 b 292 1055 411 905 357 981 b 239 1105 280 1076 262 1093 b 148 1116 210 1122 178 1124 b 41 1017 97 1105 50 1069 b 18 209 -1 748 -12 479 b 158 69 27 133 76 69 b 298 209 228 69 307 133 b 280 494 288 304 281 399 b 327 385 295 458 310 420 b 488 322 354 326 429 305 b 575 391 522 328 554 349 b 633 505 595 429 614 467 b 640 144 628 385 622 267 b 812 47 651 69 745 28 b 909 219 892 69 920 144 b 917 609 890 347 913 481 b 903 978 920 732 914 855 z "},"N":{"ha":1022,"x_min":0,"x_max":0,"o":"m 880 983 b 600 983 870 1162 591 1164 b 584 604 608 855 602 728 b 287 1057 503 765 408 919 b 237 1094 271 1075 254 1086 b 9 980 159 1143 20 1104 b 81 132 -16 695 9 408 b 351 205 126 -43 395 31 b 288 571 319 327 299 448 b 484 155 363 437 424 296 b 499 119 487 142 492 130 b 500 119 499 119 500 119 b 691 68 530 48 631 33 b 738 113 712 81 727 96 b 760 154 747 125 754 138 b 880 983 855 419 896 702 z "},"O":{"ha":989,"x_min":0,"x_max":0,"o":"m 387 1091 b 347 1085 372 1091 359 1088 b 106 965 255 1075 168 1040 b 2 614 24 867 7 738 b 416 71 -11 348 140 102 b 865 583 683 39 840 365 b 387 1091 895 863 666 1101 z m 438 350 b 281 587 317 338 283 500 b 308 770 279 650 288 711 b 432 808 323 817 394 810 b 437 808 433 808 435 808 b 588 610 532 791 591 716 b 438 350 586 539 528 359 z "},"P":{"ha":905,"x_min":0,"x_max":0,"o":"m 772 835 b 184 1176 767 1146 435 1205 b 168 1173 178 1175 173 1174 b 153 1174 163 1174 158 1174 b 13 1034 71 1174 20 1110 b 85 144 -16 736 9 435 b 355 219 130 -30 400 44 b 308 446 335 294 319 370 b 620 509 416 450 520 454 b 772 835 741 577 775 705 z m 282 723 b 283 905 280 783 281 844 b 492 852 371 909 477 903 b 282 723 532 713 382 722 z "},"Q":{"ha":1154,"x_min":0,"x_max":0,"o":"m 972 328 b 927 360 957 338 942 349 b 919 366 924 363 921 365 b 901 381 913 371 907 376 b 884 396 895 386 889 391 b 915 534 901 439 911 486 b 842 909 924 663 903 795 b 504 1103 777 1035 633 1081 b 378 1076 458 1112 412 1103 b 13 722 201 1055 56 915 b 373 106 -47 454 94 164 b 711 178 496 81 616 111 b 831 87 749 146 790 115 b 1023 137 894 43 986 75 b 972 328 1063 206 1035 285 z m 447 802 b 572 795 489 784 534 780 b 595 778 581 790 588 785 b 637 620 630 745 634 665 b 600 452 642 562 631 499 b 592 441 597 448 594 444 b 479 377 566 406 530 382 b 447 802 177 347 271 878 z "},"R":{"ha":926,"x_min":0,"x_max":0,"o":"m 778 271 b 548 534 720 375 642 467 b 724 922 672 621 755 743 b 130 1149 680 1163 324 1202 b -1 1015 65 1143 3 1098 b 64 106 -14 710 9 406 b 235 8 77 31 167 -11 b 333 180 314 29 347 105 b 307 348 323 236 315 292 b 536 130 407 313 481 228 b 778 271 624 -27 865 114 z m 276 888 b 450 857 346 894 426 889 b 277 702 498 793 332 724 b 276 888 275 764 275 827 z "},"S":{"ha":909,"x_min":0,"x_max":0,"o":"m 521 873 b 762 1015 614 720 857 860 b 320 1186 671 1164 486 1208 b 87 784 121 1160 28 968 b 228 564 114 700 172 630 b 406 372 280 503 378 450 b 383 245 422 324 429 257 b 277 333 304 225 294 271 b 7 259 230 507 -40 433 b 374 -35 58 71 173 -37 b 695 306 574 -33 690 115 b 628 550 697 391 672 477 b 425 762 578 633 490 690 b 345 909 408 781 323 893 b 521 873 377 932 499 909 z "},"T":{"ha":1230,"x_min":0,"x_max":0,"o":"m 1005 1156 b 100 1121 703 1219 395 1210 b 174 852 -73 1069 1 800 b 353 894 233 869 292 884 b 401 43 311 610 327 323 b 671 118 448 -130 718 -56 b 639 918 602 380 589 652 b 930 886 736 917 833 907 b 1005 1156 1106 849 1181 1119 z "},"U":{"ha":950,"x_min":0,"x_max":0,"o":"m 792 1007 b 621 1105 781 1082 687 1123 b 523 932 541 1082 511 1008 b 535 562 541 810 543 686 b 412 328 529 470 515 357 b 283 899 233 277 279 817 b 3 899 292 1079 12 1078 b 425 50 -11 596 -22 19 b 792 1007 880 81 840 692 z "},"V":{"ha":1198,"x_min":0,"x_max":0,"o":"m 801 932 b 502 493 701 785 602 640 b 235 954 433 657 347 812 b 37 954 188 1014 87 1003 b 37 756 -21 895 -9 816 b 328 151 178 578 263 365 b 583 117 363 29 515 18 b 1042 790 736 342 889 566 b 801 932 1144 940 902 1080 z "},"W":{"ha":1659,"x_min":0,"x_max":0,"o":"m 1272 956 b 1006 526 1189 809 1100 666 b 907 798 968 615 935 705 b 652 831 873 909 709 943 b 501 543 602 735 551 639 b 265 969 430 688 351 831 b 24 828 170 1122 -71 982 b 373 154 157 612 274 388 b 614 154 414 58 570 68 l 750 415 b 862 180 784 336 821 257 b 1103 180 915 79 1045 101 b 1513 814 1253 383 1389 595 b 1272 956 1602 972 1360 1113 z "},"X":{"ha":1165,"x_min":0,"x_max":0,"o":"m 991 342 b 688 670 890 450 790 561 b 743 743 707 694 725 719 b 892 913 787 804 829 870 b 751 1155 1039 1016 899 1259 b 492 874 644 1081 567 979 b 246 1103 412 954 331 1030 b 48 905 110 1219 -89 1023 b 322 648 143 824 234 737 b 94 293 237 535 157 420 b 335 152 14 132 255 -9 b 517 444 386 256 450 351 b 793 145 610 344 701 243 b 991 342 917 14 1114 212 z "},"Y":{"ha":1158,"x_min":0,"x_max":0,"o":"m 907 1210 b 734 1112 828 1232 762 1183 b 559 704 682 977 628 836 b 260 1135 448 840 349 983 b 19 994 170 1291 -73 1149 b 393 468 127 807 254 633 b 401 459 396 465 399 462 b 109 216 322 361 227 277 b 250 -26 -52 133 90 -108 b 1004 1038 663 187 846 628 b 907 1210 1031 1109 975 1192 z "},"Z":{"ha":1124,"x_min":0,"x_max":0,"o":"m 849 319 b 401 303 700 313 551 307 b 939 861 552 514 732 701 b 840 1099 1038 938 952 1102 b 121 1028 599 1093 359 1069 b 23 857 45 1015 4 924 b 195 759 45 777 120 746 b 446 793 279 773 362 785 b 21 227 282 623 139 433 b 142 16 -31 136 35 14 b 849 40 378 22 613 29 b 849 319 1029 48 1029 328 z "},"[":{"ha":1053,"x_min":0,"x_max":0,"o":""},"\\":{"ha":790,"x_min":0,"x_max":0,"o":""},"]":{"ha":1053,"x_min":0,"x_max":0,"o":""},"^":{"ha":1409,"x_min":0,"x_max":0,"o":""},"_":{"ha":694,"x_min":0,"x_max":0,"o":"m 694 -109 l 694 -68 l 0 -68 l 0 -109 z "},"`":{"ha":694,"x_min":0,"x_max":0,"o":"m 456 732 l 259 932 b 194 972 229 963 212 972 b 144 924 163 972 144 951 b 186 869 144 905 158 887 l 410 732 z "},"a":{"ha":975,"x_min":0,"x_max":0,"o":"m 857 115 b 802 691 843 307 833 500 b 526 1086 773 864 699 1022 b 173 741 301 1170 222 894 b 10 169 112 552 58 361 b 279 94 -33 -6 236 -81 b 311 217 290 136 300 176 b 570 222 397 222 484 224 b 578 115 572 186 575 151 b 857 115 591 -64 871 -65 z m 391 500 b 442 667 408 556 425 612 b 472 756 452 696 462 726 b 484 793 476 768 480 781 b 541 562 525 737 536 599 b 548 503 544 542 546 522 b 391 500 496 503 443 502 z "},"b":{"ha":1001,"x_min":0,"x_max":0,"o":"m 757 653 b 654 721 726 683 692 705 b 645 1000 691 808 694 908 b 73 1076 521 1231 269 1168 b 8 985 37 1059 16 1024 b 7 981 7 984 7 983 b 6 976 7 979 7 978 b 4 953 5 968 4 961 b 98 170 3 689 35 427 b 241 72 117 94 180 65 b 880 265 471 -28 812 -27 b 757 653 911 404 857 555 z m 393 878 b 302 752 435 819 345 770 b 290 747 298 750 294 749 b 285 867 288 787 286 827 b 393 878 329 885 378 899 z m 349 331 b 316 508 336 389 325 449 b 373 492 333 498 353 492 b 608 326 492 486 611 473 b 349 331 606 246 422 300 z "},"c":{"ha":1013,"x_min":0,"x_max":0,"o":"m 821 366 b 629 315 749 408 675 376 b 382 296 587 260 434 272 b 286 540 294 336 286 458 b 374 825 286 644 295 751 b 626 810 448 895 555 863 b 817 860 687 764 782 800 b 767 1051 859 932 827 1005 b 222 1059 609 1171 384 1173 b 7 512 43 932 7 719 b 300 28 6 314 100 96 b 870 174 498 -39 741 3 b 821 366 916 235 880 330 z "},"d":{"ha":1019,"x_min":0,"x_max":0,"o":"m 873 704 b 583 1070 842 881 751 1003 b 176 1092 454 1121 309 1129 b 12 958 102 1099 18 1054 b 113 94 -9 667 25 372 b 372 60 153 -35 316 -26 b 769 232 522 71 663 120 b 873 704 890 359 901 538 z m 572 429 b 337 338 514 359 423 341 b 286 829 300 500 283 663 b 433 826 334 838 382 837 b 598 660 533 804 576 758 b 572 429 614 589 621 490 z "},"e":{"ha":882,"x_min":0,"x_max":0,"o":"m 593 214 b 408 214 532 213 470 214 b 297 224 371 215 332 212 b 277 397 277 272 275 336 b 582 387 379 393 481 390 b 582 666 762 380 762 660 b 306 675 490 669 398 672 b 354 834 316 731 332 787 b 437 833 382 834 409 834 b 623 826 499 833 561 830 b 623 1105 803 815 802 1095 b 375 1114 541 1111 458 1114 b 142 1027 283 1114 199 1109 b 12 582 58 906 28 732 b 8 541 9 568 8 555 b 6 517 7 533 7 526 b 73 50 -6 378 -14 168 b 593 -66 184 -100 429 -68 b 593 214 773 -63 774 216 z "},"f":{"ha":911,"x_min":0,"x_max":0,"o":"m 618 905 b 790 1002 694 892 768 923 b 692 1175 809 1070 768 1162 b 167 1139 515 1204 338 1196 b 27 1036 105 1139 37 1101 b 84 11 -24 692 -8 347 b 354 85 132 -163 402 -89 b 290 410 325 192 303 301 b 618 458 394 455 503 469 b 758 598 694 452 758 528 b 618 738 758 680 694 731 b 275 702 501 749 385 736 b 287 883 276 762 280 823 b 618 905 395 913 506 923 z "},"g":{"ha":1103,"x_min":0,"x_max":0,"o":"m 612 645 b 612 365 433 633 432 353 b 693 365 640 367 667 368 b 486 270 657 309 553 274 b 281 455 370 263 294 345 b 380 804 267 577 294 711 b 538 878 422 849 477 875 b 651 839 566 880 638 873 b 823 741 679 768 744 720 b 921 913 891 760 949 842 b 220 1036 810 1201 435 1219 b 58 238 -5 844 -55 502 b 815 94 185 -57 582 -56 b 982 453 937 172 981 315 b 612 645 983 632 743 654 z "},"h":{"ha":1023,"x_min":0,"x_max":0,"o":"m 845 1016 b 673 1114 833 1091 740 1132 b 575 941 593 1092 564 1017 b 601 670 589 852 597 761 b 280 669 494 671 387 671 b 288 1027 276 789 278 908 b 8 1027 302 1208 22 1206 b 69 114 -16 722 6 415 b 339 189 106 -62 376 12 b 304 391 325 256 313 323 b 597 391 401 391 499 391 b 578 205 593 329 587 267 b 719 66 569 130 650 66 b 859 205 802 66 848 130 b 845 1016 893 477 886 746 z "},"i":{"ha":784,"x_min":0,"x_max":0,"o":"m 528 257 b 498 257 518 257 509 257 b 464 881 485 465 473 673 b 565 976 511 891 550 922 b 467 1148 583 1042 543 1137 b 104 1146 344 1166 228 1166 b 7 975 29 1135 -12 1042 b 179 877 29 895 104 865 b 184 878 181 877 182 877 b 219 253 194 669 205 461 b 229 -26 48 241 51 -28 l 528 -22 b 528 257 709 -20 709 259 z "},"j":{"ha":1036,"x_min":0,"x_max":0,"o":"m 786 1186 b 412 1160 661 1184 536 1175 b 272 1021 336 1152 272 1104 b 412 881 272 951 336 872 b 471 887 432 884 452 885 b 427 492 472 754 458 623 b 349 311 416 447 401 331 b 277 374 301 292 276 330 b -3 374 281 554 1 554 b 565 126 -9 68 347 -75 b 722 538 669 222 697 406 b 751 905 743 659 753 783 b 786 907 763 906 774 907 b 786 1186 966 909 966 1190 z "},"k":{"ha":974,"x_min":0,"x_max":0,"o":"m 732 359 b 424 583 610 396 513 490 b 782 860 518 703 639 795 b 832 1051 851 892 867 991 b 640 1101 790 1122 710 1133 b 288 852 508 1042 389 956 b 304 1069 292 925 298 997 b 164 1208 311 1145 235 1208 b 24 1069 83 1208 32 1145 b -1 603 10 914 1 759 b 3 359 -2 522 -1 440 b 31 165 6 294 24 226 b 68 43 25 124 38 80 b 71 39 68 41 70 40 b 237 21 115 -16 184 -11 b 237 20 237 21 237 20 b 239 22 238 21 239 22 b 240 22 240 22 240 22 b 290 68 260 35 277 50 b 290 275 334 128 300 210 b 283 332 287 294 285 313 b 658 89 392 228 509 134 b 732 359 831 36 904 306 z "},"l":{"ha":934,"x_min":0,"x_max":0,"o":"m 627 434 b 281 362 513 406 397 382 b 290 591 278 439 287 519 b 328 995 295 726 308 861 b 230 1167 338 1070 310 1145 b 58 1069 163 1185 68 1145 b 12 623 36 921 20 772 b 21 193 4 486 -12 330 b 26 166 22 184 23 174 b 62 103 33 139 46 119 b 214 71 102 61 163 54 b 701 165 378 94 541 125 b 627 434 876 208 802 477 z "},"m":{"ha":1050,"x_min":0,"x_max":0,"o":"m 903 978 b 877 1082 913 1017 901 1053 b 760 1149 854 1122 814 1149 b 624 1049 703 1149 640 1106 b 461 778 565 962 511 871 b 448 812 457 789 452 801 b 292 1055 411 905 357 981 b 239 1105 280 1076 262 1093 b 148 1116 210 1122 178 1124 b 41 1017 97 1105 50 1069 b 18 209 -1 748 -12 479 b 158 69 27 133 76 69 b 298 209 228 69 307 133 b 280 494 288 304 281 399 b 327 385 295 458 310 420 b 488 322 354 326 429 305 b 575 391 522 328 554 349 b 633 505 595 429 614 467 b 640 144 628 385 622 267 b 812 47 651 69 745 28 b 909 219 892 69 920 144 b 917 609 890 347 913 481 b 903 978 920 732 914 855 z "},"n":{"ha":1022,"x_min":0,"x_max":0,"o":"m 880 983 b 600 983 870 1162 591 1164 b 584 604 608 855 602 728 b 287 1057 503 765 408 919 b 237 1094 271 1075 254 1086 b 9 980 159 1143 20 1104 b 81 132 -16 695 9 408 b 351 205 126 -43 395 31 b 288 571 319 327 299 448 b 484 155 363 437 424 296 b 499 119 487 142 492 130 b 500 119 499 119 500 119 b 691 68 530 48 631 33 b 738 113 712 81 727 96 b 760 154 747 125 754 138 b 880 983 855 419 896 702 z "},"o":{"ha":989,"x_min":0,"x_max":0,"o":"m 387 1091 b 347 1085 372 1091 359 1088 b 106 965 255 1075 168 1040 b 2 614 24 867 7 738 b 416 71 -11 348 140 102 b 865 583 683 39 840 365 b 387 1091 895 863 666 1101 z m 438 350 b 281 587 317 338 283 500 b 308 770 279 650 288 711 b 432 808 323 817 394 810 b 437 808 433 808 435 808 b 588 610 532 791 591 716 b 438 350 586 539 528 359 z "},"p":{"ha":905,"x_min":0,"x_max":0,"o":"m 772 835 b 184 1176 767 1146 435 1205 b 168 1173 178 1175 173 1174 b 153 1174 163 1174 158 1174 b 13 1034 71 1174 20 1110 b 85 144 -16 736 9 435 b 355 219 130 -30 400 44 b 308 446 335 294 319 370 b 620 509 416 450 520 454 b 772 835 741 577 775 705 z m 282 723 b 283 905 280 783 281 844 b 492 852 371 909 477 903 b 282 723 532 713 382 722 z "},"q":{"ha":1154,"x_min":0,"x_max":0,"o":"m 972 328 b 927 360 957 338 942 349 b 919 366 924 363 921 365 b 901 381 913 371 907 376 b 884 396 895 386 889 391 b 915 534 901 439 911 486 b 842 909 924 663 903 795 b 504 1103 777 1035 633 1081 b 378 1076 458 1112 412 1103 b 13 722 201 1055 56 915 b 373 106 -47 454 94 164 b 711 178 496 81 616 111 b 831 87 749 146 790 115 b 1023 137 894 43 986 75 b 972 328 1063 206 1035 285 z m 447 802 b 572 795 489 784 534 780 b 595 778 581 790 588 785 b 637 620 630 745 634 665 b 600 452 642 562 631 499 b 592 441 597 448 594 444 b 479 377 566 406 530 382 b 447 802 177 347 271 878 z "},"r":{"ha":926,"x_min":0,"x_max":0,"o":"m 778 271 b 548 534 720 375 642 467 b 724 922 672 621 755 743 b 130 1149 680 1163 324 1202 b -1 1015 65 1143 3 1098 b 64 106 -14 710 9 406 b 235 8 77 31 167 -11 b 333 180 314 29 347 105 b 307 348 323 236 315 292 b 536 130 407 313 481 228 b 778 271 624 -27 865 114 z m 276 888 b 450 857 346 894 426 889 b 277 702 498 793 332 724 b 276 888 275 764 275 827 z "},"s":{"ha":909,"x_min":0,"x_max":0,"o":"m 521 873 b 762 1015 614 720 857 860 b 320 1186 671 1164 486 1208 b 87 784 121 1160 28 968 b 228 564 114 700 172 630 b 406 372 280 503 378 450 b 383 245 422 324 429 257 b 277 333 304 225 294 271 b 7 259 230 507 -40 433 b 374 -35 58 71 173 -37 b 695 306 574 -33 690 115 b 628 550 697 391 672 477 b 425 762 578 633 490 690 b 345 909 408 781 323 893 b 521 873 377 932 499 909 z "},"t":{"ha":1230,"x_min":0,"x_max":0,"o":"m 1005 1156 b 100 1121 703 1219 395 1210 b 174 852 -73 1069 1 800 b 353 894 233 869 292 884 b 401 43 311 610 327 323 b 671 118 448 -130 718 -56 b 639 918 602 380 589 652 b 930 886 736 917 833 907 b 1005 1156 1106 849 1181 1119 z "},"u":{"ha":950,"x_min":0,"x_max":0,"o":"m 792 1007 b 621 1105 781 1082 687 1123 b 523 932 541 1082 511 1008 b 535 562 541 810 543 686 b 412 328 529 470 515 357 b 283 899 233 277 279 817 b 3 899 292 1079 12 1078 b 425 50 -11 596 -22 19 b 792 1007 880 81 840 692 z "},"v":{"ha":1198,"x_min":0,"x_max":0,"o":"m 801 932 b 502 493 701 785 602 640 b 235 954 433 657 347 812 b 37 954 188 1014 87 1003 b 37 756 -21 895 -9 816 b 328 151 178 578 263 365 b 583 117 363 29 515 18 b 1042 790 736 342 889 566 b 801 932 1144 940 902 1080 z "},"w":{"ha":1659,"x_min":0,"x_max":0,"o":"m 1272 956 b 1006 526 1189 809 1100 666 b 907 798 968 615 935 705 b 652 831 873 909 709 943 b 501 543 602 735 551 639 b 265 969 430 688 351 831 b 24 828 170 1122 -71 982 b 373 154 157 612 274 388 b 614 154 414 58 570 68 l 750 415 b 862 180 784 336 821 257 b 1103 180 915 79 1045 101 b 1513 814 1253 383 1389 595 b 1272 956 1602 972 1360 1113 z "},"x":{"ha":1165,"x_min":0,"x_max":0,"o":"m 991 342 b 688 670 890 450 790 561 b 743 743 707 694 725 719 b 892 913 787 804 829 870 b 751 1155 1039 1016 899 1259 b 492 874 644 1081 567 979 b 246 1103 412 954 331 1030 b 48 905 110 1219 -89 1023 b 322 648 143 824 234 737 b 94 293 237 535 157 420 b 335 152 14 132 255 -9 b 517 444 386 256 450 351 b 793 145 610 344 701 243 b 991 342 917 14 1114 212 z "},"y":{"ha":1158,"x_min":0,"x_max":0,"o":"m 907 1210 b 734 1112 828 1232 762 1183 b 559 704 682 977 628 836 b 260 1135 448 840 349 983 b 19 994 170 1291 -73 1149 b 393 468 127 807 254 633 b 401 459 396 465 399 462 b 109 216 322 361 227 277 b 250 -26 -52 133 90 -108 b 1004 1038 663 187 846 628 b 907 1210 1031 1109 975 1192 z "},"z":{"ha":1124,"x_min":0,"x_max":0,"o":"m 849 319 b 401 303 700 313 551 307 b 939 861 552 514 732 701 b 840 1099 1038 938 952 1102 b 121 1028 599 1093 359 1069 b 23 857 45 1015 4 924 b 195 759 45 777 120 746 b 446 793 279 773 362 785 b 21 227 282 623 139 433 b 142 16 -31 136 35 14 b 849 40 378 22 613 29 b 849 319 1029 48 1029 328 z "},"{":{"ha":688,"x_min":0,"x_max":0,"o":"m 600 -164 l 600 -130 l 538 -130 b 434 -45 485 -130 435 -100 l 435 294 b 393 401 435 331 421 367 b 296 452 366 435 334 452 l 296 454 b 393 506 334 454 366 471 b 434 613 420 540 434 576 l 434 952 b 538 1037 435 1006 485 1037 l 600 1037 l 600 1071 l 526 1071 b 401 1025 477 1071 435 1056 b 349 929 366 995 349 962 l 349 612 b 314 522 349 581 337 551 b 163 473 291 492 241 475 l 163 433 b 314 385 241 431 291 414 b 349 295 337 355 349 325 l 349 -22 b 401 -118 349 -56 367 -87 b 526 -164 436 -149 477 -164 z "},"|":{"ha":688,"x_min":0,"x_max":0,"o":"m 398 -283 l 398 1069 l 290 1069 l 290 -283 z "},"}":{"ha":688,"x_min":0,"x_max":0,"o":"m 161 -164 b 287 -118 210 -164 252 -149 b 339 -22 321 -87 338 -56 l 339 295 b 374 385 339 325 351 355 b 525 433 397 414 447 431 l 525 473 b 374 522 447 475 397 492 b 339 612 351 551 339 581 l 339 929 b 287 1025 339 962 321 995 b 161 1071 252 1056 210 1071 l 88 1071 l 88 1037 l 149 1037 b 254 952 203 1037 253 1006 l 254 613 b 295 506 254 576 267 540 b 392 454 322 471 355 454 l 392 452 b 294 401 355 452 322 435 b 253 294 267 367 253 331 l 254 -45 b 149 -130 253 -100 203 -130 l 88 -130 l 88 -164 z "},"~":{"ha":688,"x_min":0,"x_max":0,"o":"m 64 377 b 152 453 97 415 126 440 b 224 472 177 466 201 472 b 345 439 251 472 291 461 b 465 406 397 417 437 406 b 543 424 490 406 517 412 b 626 490 570 435 597 457 l 626 595 b 538 519 593 557 564 532 b 465 500 513 507 488 500 b 348 534 439 500 401 512 b 224 568 294 557 254 568 b 147 550 199 568 174 562 b 64 483 121 538 93 516 z "},"¡":{"ha":933,"x_min":0,"x_max":0,"o":""},"¢":{"ha":1582,"x_min":0,"x_max":0,"o":""},"£":{"ha":688,"x_min":0,"x_max":0,"o":"m 565 0 l 635 157 l 602 157 b 473 68 575 98 532 68 l 201 68 b 311 322 274 165 311 250 b 287 416 311 356 302 387 b 266 456 279 429 272 443 l 492 456 l 492 497 l 248 497 b 212 682 224 559 212 621 l 212 703 b 269 866 212 770 231 824 b 397 935 309 911 352 935 b 507 913 438 935 473 928 b 559 844 540 895 557 872 l 599 844 l 599 954 b 524 977 599 962 574 970 b 398 986 474 983 432 986 b 188 904 313 986 245 960 b 104 669 132 849 104 771 b 143 497 104 619 117 562 l 52 497 l 52 456 l 161 456 b 182 414 167 443 174 429 b 205 317 197 385 205 352 b 78 34 205 236 163 142 l 77 0 z "},"¤":{"ha":688,"x_min":0,"x_max":0,"o":"m 344 336 b 237 380 304 336 266 352 b 193 486 212 406 193 448 b 237 593 193 524 212 567 b 343 637 263 618 304 637 b 450 593 382 637 422 620 b 495 486 476 566 495 525 b 489 447 495 473 493 460 b 344 336 469 380 411 336 z m 550 225 l 604 280 l 525 359 b 566 486 550 397 566 441 b 525 613 566 532 550 576 l 604 692 l 550 747 l 470 667 b 345 708 433 692 388 708 b 217 667 300 708 252 691 l 137 747 l 83 692 l 163 612 b 122 486 138 577 122 530 b 163 359 122 441 138 394 l 83 280 l 137 225 l 217 305 b 344 264 254 279 300 264 b 470 305 391 264 436 281 z "},"¥":{"ha":856,"x_min":0,"x_max":0,"o":"m 579 -8 b 603 11 593 -8 603 0 b 551 32 603 24 585 31 b 477 45 515 33 491 37 b 460 176 465 52 460 74 l 458 322 l 460 363 l 819 363 b 839 382 833 363 839 369 b 817 397 839 393 832 397 l 470 397 b 571 514 472 401 528 460 l 819 514 b 839 532 834 514 839 517 b 817 547 839 542 830 547 l 597 547 l 720 697 b 820 777 758 743 791 770 l 838 780 b 864 803 855 783 864 790 b 846 814 863 809 856 814 b 777 812 844 814 804 812 l 682 812 b 599 818 652 812 607 818 b 576 798 583 818 576 811 b 608 781 576 787 587 782 l 636 778 b 668 750 659 774 668 767 b 656 715 668 741 663 726 l 468 447 b 447 433 462 438 455 433 b 399 481 433 433 417 449 b 376 517 390 496 382 508 l 269 667 b 227 754 241 707 227 739 b 261 778 227 769 239 778 b 286 775 267 778 281 775 b 322 789 307 775 322 782 b 289 811 322 807 317 811 l 229 811 b 35 822 165 811 60 822 b 5 798 15 822 5 815 b 18 786 5 792 12 786 b 172 652 62 786 113 741 b 245 547 201 608 226 573 l 37 547 b 18 530 23 547 18 543 b 39 514 18 518 24 514 l 272 514 l 354 397 l 37 397 b 18 380 24 397 18 393 b 37 363 18 369 24 363 l 366 362 b 370 317 368 348 370 334 l 371 153 b 366 83 371 122 370 99 b 288 30 360 52 349 43 l 271 26 b 240 5 245 21 240 16 b 273 -8 240 -5 246 -8 b 511 -3 296 -8 427 -3 b 579 -8 541 -3 577 -8 z "},"¦":{"ha":688,"x_min":0,"x_max":0,"o":"m 398 -283 l 398 252 l 290 252 l 290 -283 z m 398 535 l 398 1070 l 290 1070 l 290 535 z "},"§":{"ha":688,"x_min":0,"x_max":0,"o":"m 370 218 b 201 387 258 275 201 332 b 318 497 201 453 247 497 b 404 477 349 497 377 490 b 480 391 445 448 470 419 b 483 373 481 385 482 379 l 484 373 l 485 366 b 370 218 485 294 439 237 z m 316 -282 b 504 -211 385 -281 448 -257 b 572 -19 549 -160 572 -96 b 535 108 572 31 560 73 b 431 188 514 136 479 163 b 498 231 454 199 477 214 b 566 422 543 281 566 345 b 529 550 566 473 554 515 b 390 647 504 585 457 616 b 195 829 260 709 195 770 b 312 939 195 895 241 939 b 423 905 355 939 388 928 b 477 815 457 882 475 852 l 512 815 l 512 947 b 446 975 512 958 490 968 b 336 986 402 983 366 986 b 322 985 330 986 327 986 b 115 766 195 979 115 898 b 270 553 115 669 163 609 l 297 541 b 121 324 191 523 121 447 b 276 111 121 227 169 167 b 490 -76 419 43 490 -20 b 316 -235 490 -172 415 -229 b 218 -201 281 -233 248 -221 b 163 -111 184 -178 165 -148 l 129 -111 l 129 -243 b 195 -271 129 -254 151 -263 b 307 -282 243 -279 276 -282 l 316 -281 z "},"¨":{"ha":694,"x_min":0,"x_max":0,"o":"m 216 774 b 233 786 220 774 226 779 l 280 837 b 288 855 286 843 288 849 b 281 872 288 860 286 866 l 235 922 b 216 931 227 928 221 931 b 199 923 211 931 205 928 l 151 874 b 142 857 145 868 142 863 b 148 841 142 852 144 846 l 199 783 b 216 774 204 777 210 774 z m 464 774 b 481 786 467 774 473 779 l 528 838 b 536 855 533 844 536 849 b 529 872 536 860 534 866 l 482 922 b 464 931 475 928 469 931 b 447 923 458 931 453 928 l 399 874 b 389 857 393 868 389 863 b 395 842 389 852 391 846 l 447 783 b 464 774 452 777 458 774 z "},"©":{"ha":1136,"x_min":0,"x_max":0,"o":"m 565 -12 b 919 133 694 -12 821 35 b 1067 487 1018 231 1067 358 b 1029 679 1067 553 1055 617 b 570 987 952 865 770 987 b 376 949 502 987 437 975 b 68 487 192 873 68 692 b 215 134 68 355 117 231 b 565 -12 309 42 429 -12 z m 566 28 b 109 487 328 28 109 221 b 242 812 109 614 159 728 b 569 947 330 901 448 947 b 893 812 687 947 804 901 b 1027 487 973 730 1027 614 b 566 28 1027 252 839 28 z m 587 151 b 751 179 652 151 707 161 b 817 237 795 197 817 216 l 817 305 l 781 305 b 733 220 781 273 765 245 b 602 182 701 195 658 182 b 489 210 559 182 522 192 b 339 499 398 259 339 376 b 361 624 339 542 347 583 b 557 792 400 732 482 785 b 667 774 597 792 627 789 b 755 690 703 761 732 733 l 785 690 l 736 825 l 708 825 b 690 804 705 811 699 804 l 684 805 b 582 823 648 818 615 823 b 410 779 522 823 465 808 b 238 488 294 715 238 597 b 281 323 238 431 252 376 b 587 151 341 214 462 151 z "},"ª":{"ha":900,"x_min":0,"x_max":0,"o":""},"«":{"ha":640,"x_min":0,"x_max":0,"o":"m 359 119 l 359 144 l 220 325 l 359 505 l 359 530 l 350 530 l 118 325 l 350 119 z m 572 119 l 572 144 l 433 325 l 572 505 l 572 530 l 562 530 l 330 325 l 562 119 z "},"¬":{"ha":688,"x_min":0,"x_max":0,"o":"m 628 186 l 629 187 l 629 520 l 59 520 l 59 452 l 562 452 l 562 186 z "},"®":{"ha":1136,"x_min":0,"x_max":0,"o":"m 591 416 b 509 492 562 416 531 435 l 509 745 l 572 745 b 616 733 587 745 601 741 b 673 578 650 713 673 643 b 665 509 673 555 671 531 b 591 416 650 449 618 420 z m 848 182 l 848 216 l 825 216 b 723 312 802 216 768 248 l 667 391 b 745 482 705 418 730 449 b 766 584 759 515 766 549 b 745 687 766 620 759 654 b 597 793 714 755 654 792 l 355 793 l 355 745 l 385 745 b 410 663 401 745 410 718 l 410 298 b 385 216 410 243 401 216 l 355 216 l 355 182 l 570 182 l 570 216 l 534 216 b 509 298 517 216 509 243 l 509 406 b 566 378 528 387 547 378 l 617 309 b 664 231 648 270 664 244 b 644 216 664 221 657 216 l 613 216 l 613 182 z m 565 -12 b 919 133 694 -12 821 35 b 1067 487 1018 231 1067 358 b 1029 679 1067 553 1055 617 b 570 987 952 865 770 987 b 376 949 502 987 437 975 b 68 487 192 873 68 692 b 215 134 68 355 117 231 b 565 -12 309 42 429 -12 z m 566 28 b 109 487 328 28 109 221 b 242 812 109 614 159 728 b 569 947 330 901 448 947 b 893 812 687 947 804 901 b 1027 487 973 730 1027 614 b 566 28 1027 252 839 28 z "},"¯":{"ha":930,"x_min":0,"x_max":0,"o":""},"°":{"ha":457,"x_min":0,"x_max":0,"o":"m 230 648 b 88 789 152 648 88 709 b 230 930 88 869 153 930 b 370 789 308 930 370 868 b 230 648 370 709 309 648 z m 229 601 b 362 656 281 601 325 619 b 418 789 399 694 418 738 b 363 923 418 842 399 886 b 230 978 326 960 282 978 b 96 923 178 978 133 960 b 41 789 59 886 41 842 b 95 656 41 737 59 692 b 229 601 131 619 176 601 z "},"±":{"ha":1409,"x_min":0,"x_max":0,"o":""},"²":{"ha":1409,"x_min":0,"x_max":0,"o":""},"³":{"ha":1409,"x_min":0,"x_max":0,"o":""},"´":{"ha":694,"x_min":0,"x_max":0,"o":"m 261 731 l 485 869 b 527 924 513 887 527 905 b 477 972 527 951 507 972 b 412 932 458 972 442 963 l 214 731 z "},"µ":{"ha":1639,"x_min":0,"x_max":0,"o":""},"¶":{"ha":694,"x_min":0,"x_max":0,"o":"m 544 0 l 544 926 l 630 926 l 630 973 l 330 973 b 63 736 167 973 63 878 b 319 500 63 601 159 508 l 319 0 l 376 0 l 376 926 l 488 926 l 488 0 z "},"·":{"ha":345,"x_min":0,"x_max":0,"o":"m 174 385 b 193 399 178 385 184 390 l 248 458 b 257 479 254 466 257 473 b 249 499 257 486 254 492 l 195 557 b 174 568 186 565 180 568 b 154 559 168 568 161 565 l 98 502 b 87 481 91 494 87 488 b 94 463 87 475 90 469 l 154 395 b 174 385 160 389 166 385 z "},"∙":{"ha":345,"x_min":0,"x_max":0,"o":"m 174 385 b 193 399 178 385 184 390 l 248 458 b 257 479 254 466 257 473 b 249 499 257 486 254 492 l 195 557 b 174 568 186 565 180 568 b 154 559 168 568 161 565 l 98 502 b 87 481 91 494 87 488 b 94 463 87 475 90 469 l 154 395 b 174 385 160 389 166 385 z "},"¸":{"ha":694,"x_min":0,"x_max":0,"o":"m 372 -283 b 521 -172 465 -283 521 -240 b 397 -67 521 -103 473 -67 b 355 -71 384 -68 370 -68 l 380 0 l 338 0 l 305 -119 b 328 -118 313 -119 321 -118 b 431 -172 389 -118 431 -134 b 347 -232 431 -214 404 -232 b 244 -197 317 -232 283 -220 l 244 -262 b 372 -283 280 -276 323 -283 z "},"¹":{"ha":1409,"x_min":0,"x_max":0,"o":""},"º":{"ha":997,"x_min":0,"x_max":0,"o":""},"»":{"ha":640,"x_min":0,"x_max":0,"o":"m 78 119 l 310 325 l 78 530 l 68 530 l 68 505 l 208 325 l 68 144 l 68 119 z m 290 119 l 522 325 l 290 530 l 281 530 l 281 505 l 420 325 l 281 144 l 281 119 z "},"¼":{"ha":0,"x_min":0,"x_max":0,"o":""},"½":{"ha":0,"x_min":0,"x_max":0,"o":""},"¾":{"ha":0,"x_min":0,"x_max":0,"o":""},"¿":{"ha":0,"x_min":0,"x_max":0,"o":""},"À":{"ha":0,"x_min":0,"x_max":0,"o":""},"Á":{"ha":0,"x_min":0,"x_max":0,"o":""},"Â":{"ha":0,"x_min":0,"x_max":0,"o":""},"Ã":{"ha":0,"x_min":0,"x_max":0,"o":""},"Ä":{"ha":0,"x_min":0,"x_max":0,"o":""},"Å":{"ha":0,"x_min":0,"x_max":0,"o":""},"Æ":{"ha":0,"x_min":0,"x_max":0,"o":""},"Œ":{"ha":0,"x_min":0,"x_max":0,"o":""},"Ç":{"ha":0,"x_min":0,"x_max":0,"o":""},"È":{"ha":0,"x_min":0,"x_max":0,"o":""},"É":{"ha":0,"x_min":0,"x_max":0,"o":""},"Ê":{"ha":0,"x_min":0,"x_max":0,"o":""},"Ë":{"ha":0,"x_min":0,"x_max":0,"o":""},"Ì":{"ha":0,"x_min":0,"x_max":0,"o":""},"Í":{"ha":0,"x_min":0,"x_max":0,"o":""},"Î":{"ha":0,"x_min":0,"x_max":0,"o":""},"Ï":{"ha":0,"x_min":0,"x_max":0,"o":""},"Ð":{"ha":0,"x_min":0,"x_max":0,"o":""},"Ñ":{"ha":0,"x_min":0,"x_max":0,"o":""},"Ò":{"ha":0,"x_min":0,"x_max":0,"o":""},"Ó":{"ha":0,"x_min":0,"x_max":0,"o":""},"Ô":{"ha":0,"x_min":0,"x_max":0,"o":""},"Õ":{"ha":0,"x_min":0,"x_max":0,"o":""},"Ö":{"ha":0,"x_min":0,"x_max":0,"o":""},"×":{"ha":0,"x_min":0,"x_max":0,"o":""},"Ø":{"ha":0,"x_min":0,"x_max":0,"o":""},"Ù":{"ha":0,"x_min":0,"x_max":0,"o":""},"Ú":{"ha":0,"x_min":0,"x_max":0,"o":""},"Û":{"ha":0,"x_min":0,"x_max":0,"o":""},"Ü":{"ha":0,"x_min":0,"x_max":0,"o":""},"Ý":{"ha":0,"x_min":0,"x_max":0,"o":""},"Ÿ":{"ha":0,"x_min":0,"x_max":0,"o":""},"Þ":{"ha":0,"x_min":0,"x_max":0,"o":""},"ß":{"ha":0,"x_min":0,"x_max":0,"o":""},"à":{"ha":0,"x_min":0,"x_max":0,"o":""},"á":{"ha":0,"x_min":0,"x_max":0,"o":""},"â":{"ha":0,"x_min":0,"x_max":0,"o":""},"ã":{"ha":0,"x_min":0,"x_max":0,"o":""},"ä":{"ha":0,"x_min":0,"x_max":0,"o":""},"å":{"ha":0,"x_min":0,"x_max":0,"o":""},"æ":{"ha":0,"x_min":0,"x_max":0,"o":""},"œ":{"ha":0,"x_min":0,"x_max":0,"o":""},"ç":{"ha":0,"x_min":0,"x_max":0,"o":""},"è":{"ha":0,"x_min":0,"x_max":0,"o":""},"é":{"ha":0,"x_min":0,"x_max":0,"o":""},"ê":{"ha":0,"x_min":0,"x_max":0,"o":""},"ë":{"ha":0,"x_min":0,"x_max":0,"o":""},"ì":{"ha":0,"x_min":0,"x_max":0,"o":""},"í":{"ha":0,"x_min":0,"x_max":0,"o":""},"î":{"ha":0,"x_min":0,"x_max":0,"o":""},"ï":{"ha":0,"x_min":0,"x_max":0,"o":""},"ð":{"ha":0,"x_min":0,"x_max":0,"o":""},"ñ":{"ha":0,"x_min":0,"x_max":0,"o":""},"ò":{"ha":0,"x_min":0,"x_max":0,"o":""},"ó":{"ha":0,"x_min":0,"x_max":0,"o":""},"ô":{"ha":0,"x_min":0,"x_max":0,"o":""},"õ":{"ha":0,"x_min":0,"x_max":0,"o":""},"ö":{"ha":0,"x_min":0,"x_max":0,"o":""},"÷":{"ha":0,"x_min":0,"x_max":0,"o":""},"ø":{"ha":0,"x_min":0,"x_max":0,"o":""},"ù":{"ha":0,"x_min":0,"x_max":0,"o":""},"ú":{"ha":0,"x_min":0,"x_max":0,"o":""},"û":{"ha":0,"x_min":0,"x_max":0,"o":""},"ü":{"ha":0,"x_min":0,"x_max":0,"o":""},"ý":{"ha":0,"x_min":0,"x_max":0,"o":""},"þ":{"ha":0,"x_min":0,"x_max":0,"o":""},"ÿ":{"ha":0,"x_min":0,"x_max":0,"o":""},"ı":{"ha":0,"x_min":0,"x_max":0,"o":""},"ˆ":{"ha":0,"x_min":0,"x_max":0,"o":""},"ˇ":{"ha":0,"x_min":0,"x_max":0,"o":""},"ˉ":{"ha":0,"x_min":0,"x_max":0,"o":""},"˘":{"ha":0,"x_min":0,"x_max":0,"o":""},"˙":{"ha":0,"x_min":0,"x_max":0,"o":""},"˚":{"ha":0,"x_min":0,"x_max":0,"o":""},"˛":{"ha":0,"x_min":0,"x_max":0,"o":""},"˜":{"ha":0,"x_min":0,"x_max":0,"o":""},"˝":{"ha":0,"x_min":0,"x_max":0,"o":""},"–":{"ha":0,"x_min":0,"x_max":0,"o":""},"—":{"ha":0,"x_min":0,"x_max":0,"o":""},"‘":{"ha":0,"x_min":0,"x_max":0,"o":""},"’":{"ha":0,"x_min":0,"x_max":0,"o":""},"‚":{"ha":0,"x_min":0,"x_max":0,"o":""},"“":{"ha":0,"x_min":0,"x_max":0,"o":""},"”":{"ha":0,"x_min":0,"x_max":0,"o":""},"„":{"ha":0,"x_min":0,"x_max":0,"o":""},"†":{"ha":0,"x_min":0,"x_max":0,"o":""},"‡":{"ha":0,"x_min":0,"x_max":0,"o":""},"•":{"ha":0,"x_min":0,"x_max":0,"o":""},"…":{"ha":0,"x_min":0,"x_max":0,"o":""},"‹":{"ha":0,"x_min":0,"x_max":0,"o":""},"›":{"ha":0,"x_min":0,"x_max":0,"o":""},"⁄":{"ha":0,"x_min":0,"x_max":0,"o":""},"∕":{"ha":0,"x_min":0,"x_max":0,"o":""},"₣":{"ha":0,"x_min":0,"x_max":0,"o":""},"₤":{"ha":0,"x_min":0,"x_max":0,"o":""},"₧":{"ha":0,"x_min":0,"x_max":0,"o":""},"€":{"ha":0,"x_min":0,"x_max":0,"o":""},"№":{"ha":0,"x_min":0,"x_max":0,"o":""},"™":{"ha":0,"x_min":0,"x_max":0,"o":""},"∂":{"ha":0,"x_min":0,"x_max":0,"o":""},"∆":{"ha":0,"x_min":0,"x_max":0,"o":""},"∏":{"ha":0,"x_min":0,"x_max":0,"o":""},"∑":{"ha":0,"x_min":0,"x_max":0,"o":""},"−":{"ha":0,"x_min":0,"x_max":0,"o":""},"√":{"ha":0,"x_min":0,"x_max":0,"o":""},"∞":{"ha":0,"x_min":0,"x_max":0,"o":""},"∫":{"ha":0,"x_min":0,"x_max":0,"o":""},"≈":{"ha":0,"x_min":0,"x_max":0,"o":""},"≤":{"ha":0,"x_min":0,"x_max":0,"o":""},"≥":{"ha":0,"x_min":0,"x_max":0,"o":""},"":{"ha":0,"x_min":0,"x_max":0,"o":""},"":{"ha":0,"x_min":0,"x_max":0,"o":""}}}
